# xmcd
#
# Track frame offsets:
#	150
#	15935
#	33790
#	52722
#
# Disc length: 911 seconds
#
# Revision: 6
# Processed by: cddbd v1.5.2PL0 Copyright (c) Steve Scherf et al.
# Submitted via: EasyCDDAExtractor 10.2.0.1
#
DISCID=19038d04
DTITLE=Zlatko and J¸rgen - Groﬂer Bruder CDM
DYEAR=2000
DGENRE=Dance
TTITLE0=Groﬂer Bruder (Single Mix)
TTITLE1=Groﬂer Bruder (Haus Mix)
TTITLE2=Groﬂer Bruder (Extended Haus Mix)
TTITLE3=Groﬂer Bruder (Karaoke Mix)
EXTD=YEAR: 2000
EXTT0=
EXTT1=
EXTT2=
EXTT3=
PLAYORDER=
